<svg width="90" height="88" viewBox="0 0 90 88" fill="none" xmlns="http://www.w3.org/2000/svg">
<path d="M7.21727 70C6.66014 70 6.20432 69.8227 5.84978 69.4682C5.49525 69.1137 5.31799 68.6578 5.31799 68.1007V18.7194C5.31799 18.1623 5.49525 17.7065 5.84978 17.3519C6.20432 16.9974 6.66014 16.8201 7.21727 16.8201H27.8814C34.415 16.8201 39.5557 18.3396 43.3036 21.3784C47.1022 24.3666 49.0014 28.621 49.0014 34.1416C49.0014 37.7376 48.1151 40.7764 46.3424 43.2581C44.6204 45.7399 42.3413 47.6138 39.505 48.88L49.9891 67.5689C50.141 67.8728 50.217 68.1514 50.217 68.4046C50.217 68.8098 50.0397 69.1896 49.6852 69.5442C49.3813 69.8481 49.0014 70 48.5456 70H38.5174C37.5551 70 36.846 69.7721 36.3902 69.3163C35.9344 68.8098 35.6052 68.354 35.4026 67.9488L26.7419 51.2351H18.9168V68.1007C18.9168 68.6578 18.7396 69.1137 18.385 69.4682C18.0305 69.8227 17.5747 70 17.0176 70H7.21727ZM18.9168 40.5232H27.7295C30.1099 40.5232 31.8826 39.9407 33.0475 38.7758C34.263 37.6109 34.8708 36.0155 34.8708 33.9896C34.8708 32.0144 34.2883 30.419 33.1235 29.2035C32.0092 27.9879 30.2112 27.3801 27.7295 27.3801H18.9168V40.5232Z" fill="#201F62"/>
<g clip-path="url(#clip0_264_340)">
<path d="M59.9032 37.0163C59.9032 37.0244 59.8442 37.3697 59.7711 37.782C59.698 38.1964 59.5782 38.8809 59.505 39.3055C59.4299 39.73 59.3669 40.0794 59.3649 40.0834C59.3628 40.0855 59.241 40.1119 59.0947 40.1383C58.6214 40.2297 58.1461 40.3577 57.6911 40.5181C57.4677 40.5953 57.4596 40.5973 57.425 40.5608C57.4067 40.5405 56.968 40.0164 56.45 39.3969C55.9321 38.7773 55.4953 38.2533 55.475 38.233C55.4425 38.1984 55.3978 38.2228 54.5082 38.7367C53.9963 39.0333 53.5738 39.2831 53.5697 39.2933C53.5657 39.3034 53.8033 39.9677 54.0958 40.77L54.628 42.2264L54.5467 42.2995C53.9597 42.8297 53.8703 42.917 53.2996 43.5487L53.2264 43.628L51.7964 43.1059C51.0103 42.8175 50.3461 42.5819 50.3217 42.5798C50.2832 42.5758 50.2039 42.7038 49.7367 43.5081C49.2228 44.3978 49.1985 44.4425 49.233 44.475C49.2533 44.4953 49.7814 44.9381 50.4071 45.4602C51.0327 45.9822 51.5567 46.4209 51.571 46.4331C51.5913 46.4534 51.5811 46.5042 51.5161 46.6911C51.3435 47.1969 51.2297 47.6173 51.1403 48.0886C51.1119 48.2389 51.0855 48.3628 51.0835 48.3648C51.0794 48.3669 50.73 48.4298 50.3055 48.505C49.881 48.5781 49.1964 48.698 48.7821 48.7711C48.3697 48.8442 48.0244 48.9031 48.0163 48.9031C48.0082 48.9031 48 49.3967 48 50C48 50.6033 48.0082 51.0969 48.0163 51.0969C48.0244 51.0969 48.3697 51.1558 48.7821 51.2289C49.1964 51.302 49.881 51.4219 50.3055 51.495C50.73 51.5702 51.0794 51.6331 51.0835 51.6352C51.0855 51.6372 51.1119 51.7611 51.1403 51.9114C51.2297 52.3827 51.3435 52.8031 51.5161 53.3089C51.5811 53.4958 51.5913 53.5466 51.571 53.5669C51.5567 53.5791 51.0327 54.0178 50.4071 54.5398C49.7814 55.0619 49.2533 55.5047 49.233 55.525C49.1985 55.5575 49.2228 55.6022 49.7367 56.4919C50.2039 57.2963 50.2832 57.4242 50.3217 57.4202C50.3461 57.4181 51.0103 57.1825 51.7964 56.8941L53.2264 56.372L53.2996 56.4513C53.8703 57.083 53.9597 57.1703 54.5467 57.7005L54.628 57.7736L54.0958 59.23C53.8033 60.0323 53.5657 60.6966 53.5697 60.7067C53.5738 60.7169 53.9963 60.9667 54.5082 61.2633C55.3978 61.7772 55.4425 61.8016 55.475 61.767C55.4953 61.7467 55.9321 61.2227 56.45 60.6031C56.968 59.9836 57.4067 59.4595 57.425 59.4392C57.4596 59.4027 57.4677 59.4047 57.6911 59.4819C58.1461 59.6423 58.6214 59.7703 59.0947 59.8617C59.241 59.8881 59.3628 59.9145 59.3649 59.9166C59.3669 59.9206 59.4299 60.27 59.505 60.6945C59.5782 61.1191 59.698 61.8036 59.7711 62.218C59.8442 62.6303 59.9032 62.9756 59.9032 62.9838C59.9032 62.9919 60.3947 63 60.996 63H62.0888L62.1944 62.4069C62.2513 62.0798 62.3732 61.3872 62.4646 60.8672C62.5539 60.3472 62.6311 59.9206 62.6352 59.9166C62.6372 59.9145 62.7753 59.8841 62.9419 59.8516C63.4578 59.75 63.795 59.6606 64.3089 59.4839C64.4958 59.4189 64.5466 59.4088 64.5669 59.4291C64.5791 59.4433 65.0178 59.9673 65.5399 60.593C66.0619 61.2186 66.5047 61.7467 66.525 61.767C66.5575 61.8016 66.6022 61.7772 67.4919 61.2633C68.0038 60.9667 68.4263 60.7169 68.4303 60.7067C68.4344 60.6925 68.0992 59.7622 67.4858 58.0864L67.37 57.7736L67.5021 57.6598C67.9428 57.2739 68.2821 56.9367 68.6599 56.502L68.7716 56.372L69.1474 56.5081C70.5855 57.0363 71.6864 57.4344 71.7007 57.4344C71.7108 57.4344 71.8916 57.1358 72.1028 56.7702C72.3121 56.4025 72.5558 55.982 72.6432 55.8317C72.7711 55.6123 72.7975 55.5534 72.7772 55.5352C72.763 55.5209 72.2349 55.0781 71.6032 54.55C70.9714 54.0219 70.4433 53.5791 70.4291 53.5669C70.4088 53.5466 70.4189 53.4958 70.4839 53.3089C70.6546 52.8092 70.7886 52.3116 70.8719 51.8627C70.8963 51.7327 70.9247 51.625 70.9328 51.625C70.941 51.625 71.3939 51.5478 71.9403 51.4523C72.4867 51.3569 73.1672 51.237 73.4516 51.1883C73.736 51.1375 73.9757 51.0969 73.9838 51.0969C73.9939 51.0969 74 50.6033 74 50C74 49.3967 73.9919 48.9031 73.9838 48.9031C73.9757 48.9031 73.6344 48.8442 73.2282 48.7731C72.8199 48.702 72.1333 48.5802 71.7007 48.505L70.9146 48.3669L70.8719 48.1333C70.7886 47.6884 70.6546 47.1888 70.4839 46.6911C70.4189 46.5042 70.4088 46.4534 70.4291 46.4331C70.4433 46.4209 70.9714 45.9781 71.6032 45.45C72.2349 44.9219 72.763 44.4791 72.7772 44.4648C72.7975 44.4466 72.7711 44.3877 72.6432 44.1683C72.5558 44.018 72.3121 43.5975 72.1028 43.2298C71.8916 42.8642 71.7108 42.5656 71.7007 42.5656C71.6864 42.5656 70.5855 42.9638 69.1474 43.4919L68.7716 43.628L68.6599 43.498C68.2821 43.0633 67.9428 42.7261 67.5021 42.3402L67.37 42.2264L67.4858 41.9136C68.0992 40.2378 68.4344 39.3075 68.4303 39.2933C68.4263 39.2831 68.0038 39.0333 67.4919 38.7367C66.6022 38.2228 66.5575 38.1984 66.525 38.233C66.5047 38.2533 66.0619 38.7814 65.5399 39.407C65.0178 40.0327 64.5791 40.5567 64.5669 40.5709C64.5466 40.5913 64.4958 40.5811 64.3089 40.5161C63.795 40.3394 63.4578 40.25 62.9419 40.1484C62.7753 40.1159 62.6372 40.0855 62.6352 40.0834C62.6311 40.0794 62.5539 39.6528 62.4646 39.1328C62.3732 38.6128 62.2513 37.9202 62.1944 37.5931L62.0888 37H60.996C60.3947 37 59.9032 37.0081 59.9032 37.0163ZM61.4164 42.33C62.7936 42.3787 64.2703 42.8927 65.4485 43.7316C66.1757 44.2475 66.8196 44.9016 67.3253 45.6328C68.083 46.7256 68.54 47.9911 68.6599 49.3297C68.6883 49.6567 68.6883 50.3433 68.6599 50.6703C68.4689 52.7808 67.4391 54.6983 65.7836 56.0166C64.7822 56.8148 63.5594 57.3613 62.3 57.5745C61.8003 57.6598 61.6907 57.668 61 57.668C60.3094 57.668 60.1997 57.6598 59.7 57.5745C57.3092 57.1703 55.2252 55.6266 54.1344 53.4511C53.5352 52.2587 53.2711 51.0177 53.326 49.6527C53.4235 47.2172 54.7072 44.9483 56.7547 43.5934C57.7744 42.9191 58.8794 42.5148 60.1225 42.3625C60.3175 42.3381 60.9452 42.3056 61.0508 42.3158C61.0853 42.3178 61.2499 42.3259 61.4164 42.33Z" fill="#201F62"/>
</g>
<circle cx="61" cy="50" r="6.55906" stroke="#D22326" stroke-width="0.711675"/>
<mask id="mask0_264_340" style="mask-type:alpha" maskUnits="userSpaceOnUse" x="34" y="22" width="56" height="56">
<g clip-path="url(#clip1_264_340)">
<path d="M59.7462 22.8254C59.7462 22.8424 59.6229 23.5655 59.4697 24.429C59.3166 25.2967 59.0656 26.7302 58.9125 27.6192C58.7551 28.5082 58.6233 29.2398 58.619 29.2483C58.6148 29.2526 58.3595 29.3079 58.0533 29.3632C57.0622 29.5546 56.0668 29.8226 55.114 30.1586C54.6461 30.3202 54.6291 30.3245 54.5568 30.2479C54.5185 30.2054 53.5998 29.108 52.5151 27.8106C51.4304 26.5133 50.5159 25.4158 50.4734 25.3733C50.4053 25.301 50.3117 25.352 48.4487 26.4282C47.3767 27.0492 46.492 27.5724 46.4835 27.5937C46.475 27.615 46.9727 29.0059 47.5852 30.6861L48.6996 33.7359L48.5295 33.889C47.3002 34.9992 47.113 35.1821 45.9178 36.505L45.7646 36.6709L42.7701 35.5777C41.124 34.9737 39.733 34.4803 39.682 34.476C39.6012 34.4675 39.4353 34.7355 38.457 36.4199C37.3808 38.283 37.3298 38.3766 37.4021 38.4446C37.4446 38.4872 38.5505 39.4144 39.8606 40.5076C41.1708 41.6008 42.2682 42.5196 42.298 42.5451C42.3405 42.5876 42.3192 42.694 42.1831 43.0853C41.8216 44.1444 41.5833 45.0249 41.3962 46.0118C41.3366 46.3265 41.2813 46.586 41.2771 46.5903C41.2686 46.5945 40.537 46.7264 39.648 46.8838C38.759 47.0369 37.3255 47.2878 36.4578 47.441C35.5943 47.5941 34.8712 47.7175 34.8542 47.7175C34.8371 47.7175 34.8201 48.7511 34.8201 50.0144C34.8201 51.2777 34.8371 52.3113 34.8542 52.3113C34.8712 52.3113 35.5943 52.4347 36.4578 52.5878C37.3255 52.741 38.759 52.9919 39.648 53.1451C40.537 53.3024 41.2686 53.4343 41.2771 53.4385C41.2813 53.4428 41.3366 53.7023 41.3962 54.017C41.5833 55.0039 41.8216 55.8844 42.1831 56.9435C42.3192 57.3348 42.3405 57.4412 42.298 57.4837C42.2682 57.5092 41.1708 58.428 39.8606 59.5212C38.5505 60.6144 37.4446 61.5417 37.4021 61.5842C37.3298 61.6522 37.3808 61.7458 38.457 63.6089C39.4353 65.2933 39.6012 65.5613 39.682 65.5528C39.733 65.5485 41.124 65.0551 42.7701 64.4511L45.7646 63.3579L45.9178 63.5238C47.113 64.8467 47.3002 65.0296 48.5295 66.1398L48.6996 66.2929L47.5852 69.3428C46.9727 71.0229 46.475 72.4138 46.4835 72.4351C46.492 72.4564 47.3767 72.9796 48.4487 73.6006C50.3117 74.6768 50.4053 74.7278 50.4734 74.6555C50.5159 74.613 51.4304 73.5155 52.5151 72.2182C53.5998 70.9208 54.5185 69.8234 54.5568 69.7809C54.6291 69.7043 54.6461 69.7086 55.114 69.8702C56.0668 70.2062 57.0622 70.4742 58.0533 70.6656C58.3595 70.7209 58.6148 70.7762 58.619 70.7805C58.6233 70.789 58.7551 71.5206 58.9125 72.4096C59.0656 73.2986 59.3166 74.7321 59.4697 75.5998C59.6229 76.4633 59.7462 77.1864 59.7462 77.2034C59.7462 77.2204 60.7756 77.2374 62.0346 77.2374H64.3231L64.5443 75.9954C64.6634 75.3105 64.9186 73.8601 65.11 72.7711C65.2972 71.6822 65.4588 70.789 65.4673 70.7805C65.4716 70.7762 65.7608 70.7124 66.1096 70.6444C67.19 70.4317 67.8961 70.2445 68.9723 69.8744C69.3636 69.7383 69.4699 69.7171 69.5125 69.7596C69.538 69.7894 70.4568 70.8868 71.5499 72.1969C72.6431 73.507 73.5704 74.613 73.6129 74.6555C73.681 74.7278 73.7746 74.6768 75.6376 73.6006C76.7096 72.9796 77.5943 72.4564 77.6028 72.4351C77.6113 72.4053 76.9095 70.4572 75.6249 66.948L75.3824 66.2929L75.6589 66.0547C76.582 65.2465 77.2923 64.5404 78.0835 63.6302L78.3174 63.3579L79.1043 63.6429C82.1159 64.7489 84.4213 65.5826 84.4511 65.5826C84.4724 65.5826 84.8509 64.9573 85.2933 64.1916C85.7314 63.4217 86.2419 62.5412 86.4248 62.2265C86.6927 61.7671 86.748 61.6437 86.7055 61.6055C86.6757 61.5757 85.5698 60.6484 84.2469 59.5425C82.9241 58.4365 81.8181 57.5092 81.7884 57.4837C81.7458 57.4412 81.7671 57.3348 81.9032 56.9435C82.2605 55.8971 82.5412 54.855 82.7156 53.915C82.7667 53.6427 82.8262 53.4173 82.8432 53.4173C82.8603 53.4173 83.8088 53.2556 84.953 53.0557C86.0972 52.8558 87.5222 52.6048 88.1177 52.5028C88.7132 52.3964 89.2151 52.3113 89.2321 52.3113C89.2534 52.3113 89.2662 51.2777 89.2662 50.0144C89.2662 48.7511 89.2492 47.7175 89.2321 47.7175C89.2151 47.7175 88.5005 47.5941 87.6498 47.4452C86.7948 47.2964 85.3571 47.0411 84.4511 46.8838L82.805 46.5945L82.7156 46.1053C82.5412 45.1738 82.2605 44.1274 81.9032 43.0853C81.7671 42.694 81.7458 42.5876 81.7884 42.5451C81.8181 42.5196 82.9241 41.5923 84.2469 40.4863C85.5698 39.3804 86.6757 38.4531 86.7055 38.4234C86.748 38.3851 86.6927 38.2617 86.4248 37.8023C86.2419 37.4876 85.7314 36.6071 85.2933 35.8372C84.8509 35.0715 84.4724 34.4462 84.4511 34.4462C84.4213 34.4462 82.1159 35.2799 79.1043 36.3859L78.3174 36.6709L78.0835 36.3986C77.2923 35.4884 76.582 34.7823 75.6589 33.9741L75.3824 33.7359L75.6249 33.0808C76.9095 29.5716 77.6113 27.6235 77.6028 27.5937C77.5943 27.5724 76.7096 27.0492 75.6376 26.4282C73.7746 25.352 73.681 25.301 73.6129 25.3733C73.5704 25.4158 72.6431 26.5218 71.5499 27.8319C70.4568 29.142 69.538 30.2394 69.5125 30.2692C69.4699 30.3117 69.3636 30.2905 68.9723 30.1544C67.8961 29.7843 67.19 29.5971 66.1096 29.3845C65.7608 29.3164 65.4716 29.2526 65.4673 29.2483C65.4588 29.2398 65.2972 28.3466 65.11 27.2577C64.9186 26.1687 64.6634 24.7183 64.5443 24.0334L64.3231 22.7914H62.0346C60.7756 22.7914 59.7462 22.8084 59.7462 22.8254ZM62.9151 33.9528C65.7991 34.0549 68.8914 35.1311 71.3585 36.8878C72.8813 37.9682 74.2297 39.3379 75.2889 40.8692C76.8754 43.1576 77.8325 45.8076 78.0835 48.6107C78.143 49.2955 78.143 50.7333 78.0835 51.4181C77.6836 55.8376 75.5271 59.853 72.0604 62.6136C69.9634 64.2852 67.4027 65.4294 64.7655 65.8761C63.7191 66.0547 63.4894 66.0717 62.0432 66.0717C60.5969 66.0717 60.3672 66.0547 59.3209 65.8761C54.3144 65.0296 49.9502 61.7969 47.666 57.2413C46.4112 54.7444 45.8582 52.1455 45.9731 49.287C46.1772 44.187 48.8655 39.4357 53.1531 36.5986C55.2884 35.1864 57.6024 34.3399 60.2056 34.0209C60.6139 33.9698 61.9283 33.9018 62.1495 33.923C62.2218 33.9273 62.5663 33.9443 62.9151 33.9528Z" fill="black"/>
</g>
</mask>
<g mask="url(#mask0_264_340)">
<rect x="-5.69785" y="1.26617" width="94.3309" height="78.5036" fill="#F9F9F9"/>
</g>
<defs>
<clipPath id="clip0_264_340">
<rect width="26" height="26" fill="white" transform="translate(48 37)"/>
</clipPath>
<clipPath id="clip1_264_340">
<rect width="54.446" height="54.446" fill="white" transform="translate(34.8201 22.7914)"/>
</clipPath>
</defs>
</svg>
